<svg width="22" height="22" viewBox="0 0 22 22" fill="none" xmlns="http://www.w3.org/2000/svg">
<path d="M1 1L1.85714 3.85714M1.85714 3.85714L5.28571 15.2857H21V6.71429C21 5.13633 19.7208 3.85714 18.1429 3.85714H1.85714ZM18.1429 21C17.3539 21 16.7143 20.3604 16.7143 19.5714C16.7143 18.7825 17.3539 18.1429 18.1429 18.1429C18.9318 18.1429 19.5714 18.7825 19.5714 19.5714C19.5714 20.3604 18.9318 21 18.1429 21ZM6.71429 19.5714C6.71429 18.7825 7.35388 18.1429 8.14286 18.1429C8.93184 18.1429 9.57143 18.7825 9.57143 19.5714C9.57143 20.3604 8.93184 21 8.14286 21C7.35388 21 6.71429 20.3604 6.71429 19.5714Z" stroke="#797979" stroke-width="2"/>
</svg>
