<svg width="50" height="50" viewBox="0 0 16 16" fill="none" xmlns="http://www.w3.org/2000/svg">
<path d="M4.6 10.2L4.3 10.6L5.1 11.2L5.4 10.8L4.6 10.2ZM10.6 10.8L10.9 11.2L11.7 10.6L11.4 10.2L10.6 10.8ZM8 14.5C4.41015 14.5 1.5 11.5899 1.5 8H0.5C0.5 12.1421 3.85786 15.5 8 15.5V14.5ZM14.5 8C14.5 11.5899 11.5899 14.5 8 14.5V15.5C12.1421 15.5 15.5 12.1421 15.5 8H14.5ZM8 1.5C11.5899 1.5 14.5 4.41015 14.5 8H15.5C15.5 3.85786 12.1421 0.5 8 0.5V1.5ZM8 0.5C3.85786 0.5 0.5 3.85786 0.5 8H1.5C1.5 4.41015 4.41015 1.5 8 1.5V0.5ZM4.5 6.5H5.5V5.5H4.5V6.5ZM10.5 6.5H11.5V5.5H10.5V6.5ZM11.4 10.2C9.7 7.93333 6.3 7.93333 4.6 10.2L5.4 10.8C6.7 9.06667 9.3 9.06667 10.6 10.8L11.4 10.2Z" fill="#D9D9D9"/>
</svg>
